<svg width="500" height="104" viewBox="0 0 500 104" fill="none" xmlns="http://www.w3.org/2000/svg">
<g id="logo_liqpay_for black">
<g id="Group 2">
<g id="Group">
<path id="Path" fill-rule="evenodd" clip-rule="evenodd" d="M420.99 80.3604L419.842 79.3764C417.054 76.9984 416.562 72.6524 419.104 69.8644L448.953 35.7522C451.331 32.9642 455.677 32.4722 458.465 35.0142L459.613 35.9982C462.401 38.3762 462.893 42.7222 460.351 45.5103L430.503 79.6224C428.125 82.4105 423.942 82.7385 420.99 80.3604Z" fill="url(#paint0_linear)"/>
<path id="Path_2" opacity="0.4" fill-rule="evenodd" clip-rule="evenodd" d="M444.934 41.6564L444.36 41.0004L439.768 46.2484L440.26 46.8224C448.132 54.6944 444.77 62.6485 442.966 65.4365L443.622 64.6985C444.688 63.4685 446.328 61.5825 448.05 59.5325C449.854 56.4164 452.397 49.0364 444.934 41.6564Z" fill="url(#paint1_linear)"/>
<path id="Path_3" opacity="0.4" fill-rule="evenodd" clip-rule="evenodd" d="M454.775 51.9062L456.005 50.5122C456.087 50.3482 456.251 50.1842 456.333 50.0202C455.021 51.4962 453.627 53.0542 452.315 54.6122C453.299 53.5462 454.119 52.6442 454.775 51.9062Z" fill="url(#paint2_radial)"/>
<path id="Path_4" fill-rule="evenodd" clip-rule="evenodd" d="M460.515 36.8182L430.667 2.706C428.289 -0.0820141 423.943 -0.574017 421.155 1.968L420.007 2.952C417.219 5.33002 416.727 9.67604 419.269 12.4641L444.443 41.0002L445.017 41.6562C452.479 49.1183 449.937 56.4983 448.051 59.6143C449.527 57.8923 451.003 56.1703 452.397 54.6123C453.709 53.0543 455.103 51.4963 456.415 50.0203C457.727 48.5442 458.957 47.1502 459.777 46.2482C462.647 43.4602 463.057 39.6062 460.515 36.8182Z" fill="url(#paint3_linear)"/>
</g>
<g id="Group_2">
<path id="Path_5" fill-rule="evenodd" clip-rule="evenodd" d="M458.874 80.3604L457.726 79.3764C454.938 76.9984 454.446 72.6524 456.988 69.8644L486.837 35.7522C489.215 32.9642 493.561 32.4722 496.349 35.0142L497.497 35.9982C500.285 38.3762 500.777 42.7222 498.235 45.5103L468.387 79.6224C466.008 82.4105 461.826 82.7385 458.874 80.3604Z" fill="url(#paint4_linear)"/>
<path id="Path_6" opacity="0.4" fill-rule="evenodd" clip-rule="evenodd" d="M483.147 41.3282L482.573 40.6722L477.981 45.9203L478.473 46.4943C486.345 54.3663 482.983 62.3204 481.179 65.1084L481.835 64.3704C482.901 63.1404 484.541 61.2544 486.263 59.2043C488.067 56.0883 490.609 48.7083 483.147 41.3282Z" fill="url(#paint5_linear)"/>
<path id="Path_7" opacity="0.4" fill-rule="evenodd" clip-rule="evenodd" d="M492.577 51.9062L493.807 50.5122C493.889 50.3482 494.053 50.1842 494.135 50.0202C492.823 51.4962 491.429 53.0542 490.117 54.6122C491.101 53.5462 492.003 52.6442 492.577 51.9062Z" fill="url(#paint6_radial)"/>
<path id="Path_8" fill-rule="evenodd" clip-rule="evenodd" d="M498.317 36.8182L468.468 2.706C466.09 -0.0820141 461.744 -0.574017 458.956 1.968L457.808 2.952C455.02 5.33002 454.528 9.67604 457.07 12.4641L482.244 41.0002L482.818 41.6562C490.28 49.1183 487.738 56.4983 485.852 59.6143C487.328 57.8923 488.804 56.1703 490.198 54.6123C491.51 53.0543 492.904 51.4963 494.216 50.0203C495.528 48.5442 496.759 47.1502 497.579 46.2482C500.449 43.4602 500.859 39.6062 498.317 36.8182Z" fill="url(#paint7_linear)"/>
</g>
</g>
<g id="Group_3">
<path id="Path_9" fill-rule="evenodd" clip-rule="evenodd" d="M1.80401 80.0324C0.656004 78.8844 0 77.1624 0 75.0304V7.54404C0 5.33003 0.656003 3.60802 2.05001 2.21401C3.44402 0.820005 5.16603 0.164001 7.38004 0.164001C9.59405 0.164001 11.5621 0.820005 12.8741 2.21401C14.2681 3.60802 14.9241 5.33003 14.9241 7.54404V69.7824H47.1503C51.7423 69.7824 54.1203 71.8324 54.1203 75.8504C54.1203 79.8684 51.7423 81.9184 47.1503 81.9184H6.97004C4.75603 81.9184 3.03402 81.2624 1.80401 80.0324Z" fill="white"/>
<path id="Path_10" fill-rule="evenodd" clip-rule="evenodd" d="M65.7644 80.5245C64.3704 79.1305 63.7144 77.3265 63.7144 75.0305V7.46213C63.7144 5.24812 64.3704 3.52611 65.7644 2.1321C67.1584 0.738096 68.8804 0.0820923 71.0944 0.0820923C73.3085 0.0820923 75.2765 0.738096 76.5885 2.1321C77.9825 3.52611 78.6385 5.24812 78.6385 7.46213V75.0305C78.6385 77.2445 77.9825 79.1305 76.5885 80.5245C75.1945 81.9185 73.3905 82.5745 71.0944 82.5745C68.9624 82.5745 67.1584 81.9185 65.7644 80.5245Z" fill="white"/>
<path id="Shape" fill-rule="evenodd" clip-rule="evenodd" d="M163.919 97.2525C163.919 95.8585 163.427 94.5465 162.607 93.1525L158.507 87.0025C156.129 83.1485 153.259 80.5244 149.733 79.3764C156.539 76.3424 161.787 71.5864 165.395 65.0264C169.085 58.5483 170.889 50.5943 170.889 41.4922C170.889 33.0462 169.331 25.6661 166.215 19.4341C163.099 13.2841 158.671 8.44605 152.849 5.00203C147.109 1.72201 140.221 0 132.431 0C124.477 0 117.671 1.55801 111.848 5.00203C106.108 8.44605 101.598 13.2021 98.4824 19.4341C95.4484 25.7481 93.8084 33.0462 93.8084 41.4922C93.8084 49.8563 95.3664 57.2363 98.4824 63.5503C101.598 69.7004 106.026 74.5384 111.848 77.9824C117.671 81.2624 124.477 82.9845 132.431 82.9845C135.219 82.9845 137.433 83.4765 139.155 84.2965C140.877 85.1165 142.271 86.4285 143.337 88.2325L150.061 99.3845C150.881 100.615 151.947 101.599 153.095 102.255C154.325 102.911 155.637 103.239 157.031 103.239C158.835 103.239 160.475 102.583 161.869 101.517C163.263 100.451 163.919 98.9745 163.919 97.2525ZM156.047 41.3283C156.047 50.8403 153.915 58.2204 149.733 63.3864C145.551 68.5524 139.729 71.0944 132.267 71.0944C124.805 71.0944 118.901 68.5524 114.719 63.3864C110.537 58.2204 108.405 51.0043 108.405 41.3283C108.405 31.6522 110.537 24.4362 114.719 19.2702C118.901 14.1861 124.723 11.6441 132.267 11.6441C139.811 11.6441 145.551 14.1041 149.733 19.2702C153.915 24.4362 156.047 31.6522 156.047 41.3283Z" fill="white"/>
<path id="Shape_2" fill-rule="evenodd" clip-rule="evenodd" d="M186.879 75.0304C186.879 77.3265 187.535 79.1305 188.929 80.5245C190.159 81.9185 192.045 82.5745 194.259 82.6565C196.555 82.6565 198.359 82.0005 199.753 80.6065C201.147 79.2945 201.803 77.4905 201.803 75.1124V50.3483H222.385C231.077 50.3483 237.801 48.2163 242.639 43.7883C247.477 39.4422 249.937 33.2922 249.937 25.5022C249.937 17.7121 247.477 11.5621 242.639 7.29807C237.801 2.87005 231.077 0.738037 222.385 0.738037H194.095C191.881 0.738037 190.159 1.39404 188.847 2.54205C187.535 3.77205 186.879 5.49406 186.879 7.70808V75.0304ZM235.833 25.6661C235.833 34.5222 230.667 39.0322 220.499 39.0322L201.803 38.9502V12.3001H220.499C230.667 12.3001 235.833 16.8101 235.833 25.6661Z" fill="white"/>
<path id="Shape_3" fill-rule="evenodd" clip-rule="evenodd" d="M326.28 80.5244C327.674 79.2124 328.412 77.7364 328.412 76.0144C328.412 74.9484 328.166 74.0464 327.838 72.9804L295.94 4.67403C295.202 3.11602 294.136 1.96801 292.742 1.14801C291.348 0.410002 289.872 0 288.232 0C286.592 0 285.116 0.328002 283.722 1.14801C282.246 1.96801 281.18 3.19802 280.524 4.67403L248.707 72.9804C248.297 73.9644 248.051 75.0304 248.051 76.0144C248.051 77.8184 248.707 79.3764 250.183 80.5244C251.577 81.6724 253.299 82.3284 255.021 82.3284C256.333 82.3284 257.481 82.0004 258.547 81.3444C259.613 80.6884 260.433 79.7044 261.089 78.3104L268.06 62.8943H308.404L315.374 78.3104C315.948 79.6224 316.85 80.6884 317.916 81.3444C318.982 82.0004 320.212 82.3284 321.36 82.3284C323.246 82.3284 324.886 81.6724 326.28 80.5244ZM303.484 51.4143H273.061L288.232 17.3021L303.484 51.4143Z" fill="white"/>
<path id="Path_11" fill-rule="evenodd" clip-rule="evenodd" d="M385.812 0.164093C387.534 0.164093 389.092 0.820096 390.486 2.2141C391.88 3.60811 392.536 5.08412 392.536 7.05213C392.536 8.52814 391.962 10.0861 390.814 11.4802L364.656 43.3783V75.2765C364.656 77.6545 364 79.4585 362.606 80.8525C361.212 82.2465 359.49 82.8206 357.358 82.8206C355.144 82.8206 353.258 82.1645 351.864 80.8525C350.47 79.5405 349.814 77.7365 349.814 75.2765V43.3783L323.82 11.3982C322.672 10.0041 322.098 8.52814 322.098 6.97013C322.098 5.16612 322.754 3.52611 324.148 2.1321C325.542 0.738096 327.182 0.0820923 328.822 0.0820923C330.79 0.0820923 332.348 0.902097 333.742 2.62411L357.276 31.8163L380.728 2.62411C382.122 0.984097 383.844 0.164093 385.812 0.164093Z" fill="white"/>
</g>
</g>
<defs>
<linearGradient id="paint0_linear" x1="430.313" y1="91.0075" x2="471.737" y2="70.9233" gradientUnits="userSpaceOnUse">
<stop stop-color="#1FADC3"/>
<stop offset="0.7072" stop-color="#36B98F"/>
</linearGradient>
<linearGradient id="paint1_linear" x1="444.859" y1="58.7495" x2="452.602" y2="57.622" gradientUnits="userSpaceOnUse">
<stop stop-color="#123F06" stop-opacity="0.01"/>
<stop offset="1" stop-color="#123F06"/>
</linearGradient>
<radialGradient id="paint2_radial" cx="0" cy="0" r="1" gradientUnits="userSpaceOnUse" gradientTransform="translate(438.327 56.1693) scale(19.9933 22.8494)">
<stop offset="0.4185" stop-color="#123F06" stop-opacity="0.01"/>
<stop offset="1" stop-color="#123F06"/>
</radialGradient>
<linearGradient id="paint3_linear" x1="401.983" y1="45.5139" x2="452.22" y2="62.8744" gradientUnits="userSpaceOnUse">
<stop stop-color="#9FDB57"/>
<stop offset="1" stop-color="#71CA5E"/>
</linearGradient>
<linearGradient id="paint4_linear" x1="468.161" y1="91.0283" x2="509.585" y2="70.9441" gradientUnits="userSpaceOnUse">
<stop stop-color="#1FADC3"/>
<stop offset="0.7072" stop-color="#36B98F"/>
</linearGradient>
<linearGradient id="paint5_linear" x1="483.071" y1="58.4214" x2="490.814" y2="57.2939" gradientUnits="userSpaceOnUse">
<stop stop-color="#123F06" stop-opacity="0.01"/>
<stop offset="1" stop-color="#123F06"/>
</linearGradient>
<radialGradient id="paint6_radial" cx="0" cy="0" r="1" gradientUnits="userSpaceOnUse" gradientTransform="translate(476.163 56.1693) scale(19.9933 22.8494)">
<stop offset="0.4185" stop-color="#123F06" stop-opacity="0.01"/>
<stop offset="1" stop-color="#123F06"/>
</radialGradient>
<linearGradient id="paint7_linear" x1="439.809" y1="45.5289" x2="490.046" y2="62.8894" gradientUnits="userSpaceOnUse">
<stop stop-color="#9FDB57"/>
<stop offset="1" stop-color="#71CA5E"/>
</linearGradient>
</defs>
</svg>
