<?xml version="1.0" encoding="utf-8"?>
<!-- Generator: Adobe Illustrator 27.1.1, SVG Export Plug-In . SVG Version: 6.00 Build 0)  -->
<svg version="1.1" id="Layer_1" xmlns="http://www.w3.org/2000/svg" xmlns:xlink="http://www.w3.org/1999/xlink" x="0px" y="0px"
	 viewBox="0 0 778 211.3" style="enable-background:new 0 0 778 211.3;" xml:space="preserve">
<style type="text/css">
	.st0{fill:#690DD3;}
	.st1{fill:#FFFFFF;}
	.st2{fill:none;}
</style>
<rect x="-0.4" y="0" class="st0" width="778" height="211.3"/>
<g>
	<g>
		<path class="st1" d="M300.2,64.3v82.8h-29.8l-28.4-66.6h-1.4v66.6h-18V81.9h-12V64.3h35.6c3.9,0,7.2,2.1,8.9,5.8L281,131h1.2V64.3
			L300.2,64.3L300.2,64.3z"/>
		<path class="st1" d="M309.6,116.1c0-18.4,14.3-32.3,33.5-32.3s33.7,13.9,33.7,32.3s-14.5,32.3-33.7,32.3S309.6,134.5,309.6,116.1z
			 M359,116.1c0-8.9-7-15.7-15.9-15.7c-8.9,0-15.9,6.8-15.9,15.7s7,15.7,15.9,15.5C352,131.8,359,125,359,116.1z"/>
		<path class="st1" d="M376.5,85h19l16.8,47h1.2l16.8-47h18.6l-24,62.1h-24.6L376.5,85L376.5,85z"/>
		<path class="st1" d="M510.8,100.3v46.8h-16.4v-6.4h-1.2c-5.4,5-12.6,7.7-20.7,7.7c-13.7,0-22.4-8.1-22.4-19.2
			c0-12.4,8.9-19,24.4-19h19.2v-6c0-2.3-1.2-3.5-3.5-3.5H456V85h39.5C504.8,85,510.8,91,510.8,100.3L510.8,100.3z M493.8,121.7V121
			h-16.4c-7,0-9.9,2.7-9.9,7s3.5,7.4,9.5,7.4C487.4,135.5,493.8,128.7,493.8,121.7L493.8,121.7z"/>
		<path class="st1" d="M597.1,90.4c0,16.1-11.6,26.1-29.2,26.1h-24.2v30.6h-18.8V64.3h43C585.5,64.3,597.1,74.5,597.1,90.4
			L597.1,90.4z M577.9,90.6c0-6-4.3-9.7-11-9.7h-23.2v19.7h23.2C573.5,100.6,577.9,96.8,577.9,90.6L577.9,90.6z"/>
		<path class="st1" d="M660.1,100.3v46.8h-16.3v-6.4h-1.2c-5.4,5-12.6,7.7-20.7,7.7c-13.7,0-22.3-8.1-22.3-19.2
			c0-12.4,8.9-19,24.4-19h19.2v-6c0-2.3-1.2-3.5-3.5-3.5h-34.3V85h39.5C654.1,85,660.1,91,660.1,100.3L660.1,100.3z M643.1,121.7
			V121h-16.3c-7,0-9.9,2.7-9.9,7s3.5,7.4,9.5,7.4C636.7,135.5,643.1,128.7,643.1,121.7L643.1,121.7z"/>
		<path class="st1" d="M737,85l-27.3,71.6c-3.7,9.3-7.9,13.2-16.1,13.2h-22.8v-15.9h19.7c1.2,0,2.1-0.4,2.9-1.7l-29-67.2h19l18,48
			h1.5L719,85L737,85L737,85z"/>
	</g>
	<g>
		<path class="st1" d="M137.4,171.3h-65c-18.3,0-33.2-14.9-33.2-33.2v-65c0-18.3,14.9-33.2,33.2-33.2h65c18.3,0,33.2,14.9,33.2,33.2
			v65C170.6,156.4,155.7,171.3,137.4,171.3L137.4,171.3z M72.4,42.9c-16.7,0-30.2,13.5-30.2,30.2v65c0,16.7,13.5,30.2,30.2,30.2h65
			c16.7,0,30.2-13.6,30.2-30.2v-65c0-16.7-13.6-30.2-30.2-30.2L72.4,42.9L72.4,42.9z"/>
		<path class="st1" d="M113.7,136.6v-20.7H96.1v20.7H82.7L99,152.9c3.3,3.3,8.6,3.3,11.9,0l16.3-16.3H113.7L113.7,136.6z
			 M73.9,127.8V83.3L57.6,99.7c-3.3,3.3-3.3,8.6,0,11.9L73.9,127.8L73.9,127.8z M96.1,74.6v20.7h17.6V74.6h13.4l-16.3-16.3
			c-3.3-3.3-8.6-3.3-11.9,0L82.7,74.6H96.1L96.1,74.6z M152.3,99.7l-16.3-16.3v44.5l16.3-16.3C155.5,108.2,155.5,102.9,152.3,99.7"
			/>
	</g>
</g>
<rect x="-0.4" y="0" class="st2" width="778" height="211.3"/>
</svg>
